<svg xmlns="http://www.w3.org/2000/svg" width="256" height="256" viewBox="0 0 256 256">
  <defs>
    <linearGradient id="tile" x1="0" y1="0" x2="1" y2="1"><stop stop-color="#287d60"/><stop offset="1" stop-color="#104936"/></linearGradient>
    <linearGradient id="pointer" x1="0" y1="0" x2="1" y2="1"><stop stop-color="#fffdf2"/><stop offset="1" stop-color="#d5efdf"/></linearGradient>
  </defs>
  <rect x="4" y="4" width="248" height="248" rx="56" fill="url(#tile)"/>
  <rect x="10" y="10" width="236" height="236" rx="50" fill="none" stroke="#9bdbc1" stroke-opacity=".22" stroke-width="2"/>
  <path d="M62 48V189L96 159L125 214L156 197L126 143H180Z" fill="#092f25" opacity=".35" transform="translate(1 7)"/>
  <path d="M62 48V189L96 159L125 214L156 197L126 143H180Z" fill="url(#pointer)" stroke="#f9fff6" stroke-width="4" stroke-linejoin="round"/>
  <path d="M78 82V151" stroke="#64bc98" stroke-width="5" stroke-linecap="round"/>
  <path d="M188 43L194 62L213 68L194 74L188 93L182 74L163 68L182 62Z" fill="#e8cf8e"/>
</svg>
